<svg width="370" height="222" viewBox="0 0 370 222" fill="none" xmlns="http://www.w3.org/2000/svg">
<path d="M0.182227 0.761985H95.9602C99.2242 0.761985 101.876 1.88399 103.916 4.128C105.956 6.37199 106.976 9.32999 106.976 13.002V222H74.8462C67.9102 222 63.3202 220.878 61.0762 218.634C59.0362 216.39 58.0162 211.698 58.0162 204.558V39.012H9.05623C3.14023 39.012 0.182227 34.116 0.182227 24.324V0.761985ZM119.216 0.761985H168.176C174.092 0.761985 177.05 5.65799 177.05 15.45V39.012H119.216V0.761985ZM369.319 0.761985V204.558C369.319 211.698 368.197 216.39 365.953 218.634C363.913 220.878 359.425 222 352.489 222H309.037C297.001 222 289.045 220.164 285.169 216.492C281.497 212.82 278.233 203.334 275.377 188.034C269.665 157.842 261.403 109.086 250.591 41.766C249.775 36.666 248.551 33.402 246.919 31.974C245.491 30.546 242.941 29.73 239.269 29.526H201.631V0.761985H268.033C273.133 0.761985 277.213 1.37399 280.273 2.598C283.333 3.82199 285.781 6.47399 287.617 10.554C289.657 14.43 290.983 18.204 291.595 21.876C292.411 25.548 293.227 29.832 294.043 34.728C295.063 40.644 296.491 49.314 298.327 60.738C301.795 83.79 307.201 116.328 314.545 158.352C317.401 176.304 319.339 186.402 320.359 188.646C321.583 190.686 323.623 191.91 326.479 192.318V13.002C326.479 9.32999 327.499 6.37199 329.539 4.128C331.579 1.88399 334.231 0.761985 337.495 0.761985H369.319ZM201.631 40.236H233.455C236.719 40.236 239.371 41.358 241.411 43.602C243.451 45.846 244.471 48.804 244.471 52.476V204.558C244.471 211.494 243.553 216.186 241.717 218.634C239.881 220.878 236.209 222 230.701 222H201.631V40.236Z" fill="black"/>
</svg>
