<svg width="570" height="378" viewBox="0 0 570 378" fill="none" xmlns="http://www.w3.org/2000/svg">
<path d="M93.1822 80.762H188.96C192.224 80.762 194.876 81.884 196.916 84.128C198.956 86.372 199.976 89.33 199.976 93.002V302H167.846C160.91 302 156.32 300.878 154.076 298.634C152.036 296.39 151.016 291.698 151.016 284.558V119.012H102.056C96.1402 119.012 93.1822 114.116 93.1822 104.324V80.762ZM212.216 80.762H261.176C267.092 80.762 270.05 85.658 270.05 95.45V119.012H212.216V80.762ZM462.319 80.762V284.558C462.319 291.698 461.197 296.39 458.953 298.634C456.913 300.878 452.425 302 445.489 302H402.037C390.001 302 382.045 300.164 378.169 296.492C374.497 292.82 371.233 283.334 368.377 268.034C362.665 237.842 354.403 189.086 343.591 121.766C342.775 116.666 341.551 113.402 339.919 111.974C338.491 110.546 335.941 109.73 332.269 109.526H294.631V80.762H361.033C366.133 80.762 370.213 81.374 373.273 82.598C376.333 83.822 378.781 86.474 380.617 90.554C382.657 94.43 383.983 98.204 384.595 101.876C385.411 105.548 386.227 109.832 387.043 114.728C388.063 120.644 389.491 129.314 391.327 140.738C394.795 163.79 400.201 196.328 407.545 238.352C410.401 256.304 412.339 266.402 413.359 268.646C414.583 270.686 416.623 271.91 419.479 272.318V93.002C419.479 89.33 420.499 86.372 422.539 84.128C424.579 81.884 427.231 80.762 430.495 80.762H462.319ZM294.631 120.236H326.455C329.719 120.236 332.371 121.358 334.411 123.602C336.451 125.846 337.471 128.804 337.471 132.476V284.558C337.471 291.494 336.553 296.186 334.717 298.634C332.881 300.878 329.209 302 323.701 302H294.631V120.236Z" fill="#A4DDED"/>
</svg>
