<svg width="16" height="9" viewBox="0 0 16 9" fill="none" xmlns="http://www.w3.org/2000/svg">
<path d="M0.977734 0.323999H4.73373C4.86173 0.323999 4.96573 0.368 5.04573 0.456C5.12573 0.544 5.16573 0.66 5.16573 0.804V9H3.90573C3.63373 9 3.45373 8.956 3.36573 8.868C3.28573 8.78 3.24573 8.596 3.24573 8.316V1.824H1.32573C1.09373 1.824 0.977734 1.632 0.977734 1.248V0.323999ZM5.64573 0.323999H7.56573C7.79773 0.323999 7.91373 0.516 7.91373 0.9V1.824H5.64573V0.323999ZM15.4537 0.323999V8.316C15.4537 8.596 15.4097 8.78 15.3217 8.868C15.2417 8.956 15.0657 9 14.7937 9H13.0897C12.6177 9 12.3057 8.928 12.1537 8.784C12.0097 8.64 11.8817 8.268 11.7697 7.668C11.5457 6.484 11.2217 4.572 10.7977 1.932C10.7657 1.732 10.7177 1.604 10.6537 1.548C10.5977 1.492 10.4977 1.46 10.3537 1.452H8.87767V0.323999H11.4817C11.6817 0.323999 11.8417 0.348 11.9617 0.396C12.0817 0.444 12.1777 0.548 12.2497 0.707999C12.3297 0.859999 12.3817 1.008 12.4057 1.152C12.4377 1.296 12.4697 1.464 12.5017 1.656C12.5417 1.888 12.5977 2.228 12.6697 2.676C12.8057 3.58 13.0177 4.856 13.3057 6.504C13.4177 7.208 13.4937 7.604 13.5337 7.692C13.5817 7.772 13.6617 7.82 13.7737 7.836V0.804C13.7737 0.66 13.8137 0.544 13.8937 0.456C13.9737 0.368 14.0777 0.323999 14.2057 0.323999H15.4537ZM8.87767 1.872H10.1257C10.2537 1.872 10.3577 1.916 10.4377 2.004C10.5177 2.092 10.5577 2.208 10.5577 2.352V8.316C10.5577 8.588 10.5217 8.772 10.4497 8.868C10.3777 8.956 10.2337 9 10.0177 9H8.87767V1.872Z" fill="#8CFFEE"/>
</svg>
