<svg width="21" height="20" viewBox="0 0 21 20" fill="none" xmlns="http://www.w3.org/2000/svg">
<path d="M1.99765 5.50783L18.3092 3.00459L20.0407 6.03139L17.506 17.3765L3.08916 16.2397L1.99765 5.50783Z" fill="black"/>
<path d="M2.47773 6.324H6.23373C6.36173 6.324 6.46573 6.368 6.54573 6.456C6.62573 6.544 6.66573 6.66 6.66573 6.804V15H5.40573C5.13373 15 4.95373 14.956 4.86573 14.868C4.78573 14.78 4.74573 14.596 4.74573 14.316V7.824H2.82573C2.59373 7.824 2.47773 7.632 2.47773 7.248V6.324ZM7.14573 6.324H9.06573C9.29773 6.324 9.41373 6.516 9.41373 6.9V7.824H7.14573V6.324ZM16.9537 6.324V14.316C16.9537 14.596 16.9097 14.78 16.8217 14.868C16.7417 14.956 16.5657 15 16.2937 15H14.5897C14.1177 15 13.8057 14.928 13.6537 14.784C13.5097 14.64 13.3817 14.268 13.2697 13.668C13.0457 12.484 12.7217 10.572 12.2977 7.932C12.2657 7.732 12.2177 7.604 12.1537 7.548C12.0977 7.492 11.9977 7.46 11.8537 7.452H10.3777V6.324H12.9817C13.1817 6.324 13.3417 6.348 13.4617 6.396C13.5817 6.444 13.6777 6.548 13.7497 6.708C13.8297 6.86 13.8817 7.008 13.9057 7.152C13.9377 7.296 13.9697 7.464 14.0017 7.656C14.0417 7.888 14.0977 8.228 14.1697 8.676C14.3057 9.58 14.5177 10.856 14.8057 12.504C14.9177 13.208 14.9937 13.604 15.0337 13.692C15.0817 13.772 15.1617 13.82 15.2737 13.836V6.804C15.2737 6.66 15.3137 6.544 15.3937 6.456C15.4737 6.368 15.5777 6.324 15.7057 6.324H16.9537ZM10.3777 7.872H11.6257C11.7537 7.872 11.8577 7.916 11.9377 8.004C12.0177 8.092 12.0577 8.208 12.0577 8.352V14.316C12.0577 14.588 12.0217 14.772 11.9497 14.868C11.8777 14.956 11.7337 15 11.5177 15H10.3777V7.872Z" fill="white"/>
</svg>
